<?xml version="1.0" encoding="utf-8"?>
<!-- Designed by Vexels.com - 2016 All Rights Reserved - https://vexels.com/terms-and-conditions/  -->

<svg version="1.1" id="Layer_1" xmlns="http://www.w3.org/2000/svg" xmlns:xlink="http://www.w3.org/1999/xlink" x="0px" y="0px"
	 width="1200px" height="1200px" viewBox="0 0 1200 1200" enable-background="new 0 0 1200 1200" xml:space="preserve">
<g>
	<path fill-rule="evenodd" clip-rule="evenodd" fill="#00A6D4" d="M82.171,198.682l900.915-19.886
		c18.106-0.415,33.248,14.083,33.634,32.189l12.047,544.732c0.386,18.082-14.083,33.248-32.192,33.663L95.687,809.291
		c-18.106,0.386-33.222-14.083-33.634-32.192L50.009,232.342C49.594,214.26,64.065,199.094,82.171,198.682z"/>
	<g>
		<defs>
			<path id="SVGID_1_" d="M82.171,198.682l900.915-19.886c18.106-0.415,33.248,14.083,33.634,32.189l12.047,544.732
				c0.386,18.082-14.083,33.248-32.192,33.663L95.687,809.291c-18.106,0.386-33.222-14.083-33.634-32.192L50.009,232.342
				C49.594,214.26,64.065,199.094,82.171,198.682z"/>
		</defs>
		<clipPath id="SVGID_2_">
			<use xlink:href="#SVGID_1_"  overflow="visible"/>
		</clipPath>
		<g clip-path="url(#SVGID_2_)">
			<path fill-rule="evenodd" clip-rule="evenodd" fill="#009FBC" d="M1149.815,685.971c-0.283-9.516-1.033-18.959-2.142-28.193
				c-3.687-30.847-11.682-60.355-23.394-87.93c-0.903-2.01-1.754-4.152-2.604-6.138c-15.528-34.563-37.041-65.875-63.015-92.753
				c-1.651-1.727-3.405-3.457-5.132-5.185c-4.926-4.849-9.931-9.622-15.192-14.16c-58.86-51.254-136.241-81.636-220.251-79.779
				c-84.679,1.883-161.235,36.238-217.903,90.87c-13.206,12.715-25.303,26.568-36.188,41.296
				c-41.243,55.841-65.025,125.124-63.374,199.665c3.946,179.058,152.852,321.414,331.86,317.468
				c125.948-2.76,233.637-77.304,285.171-183.572c10.988-22.672,19.474-46.763,24.891-72.043c1.445-6.421,2.604-12.844,3.637-19.371
				c2.837-18.468,4.178-37.477,3.74-56.848C1149.918,688.19,1149.842,687.081,1149.815,685.971L1149.815,685.971z M1085.823,557.572
				l1.857-2.192c2.578,4.77,4.976,9.619,7.298,14.469h-3.069l-5.803,0.903L1085.823,557.572L1085.823,557.572z M1037.639,501.961
				l-0.256-14.548c5.185,5.288,10.264,10.782,15.089,16.431l-5.676,8.848l-20.401,0.283L1025,508.77L1037.639,501.961
				L1037.639,501.961z M645.217,474.542l-0.026-0.489l6.527-0.156l0.465-2.219l10.705-0.256l0.103,4.643l-2.993,4.075l-14.651,0.333
				L645.217,474.542L645.217,474.542z M655.949,488.781c0,0,6.447-1.239,7.042-1.239c0.515-0.026,0.153,6.5,0.153,6.5l-14.675,1.239
				l-2.863-3.251L655.949,488.781L655.949,488.781z M1107.616,607.793l-23.729,0.489l-14.701-10.393l-15.219,1.754l0.206,9.31
				l-4.849,0.103l-5.288-3.584l-26.489-6.141l-0.388-17.073l-33.401,3.352l-10.214,5.829l-13.309,0.285l-6.553-0.568l-15.914,9.387
				l0.386,16.793l-32.395,24.453l2.94,10.137l6.706-0.156l-1.495,9.699l-4.696,1.83l0.309,25.253l29.149,31.83l12.456-0.259
				l0.671-2.039l22.287-0.462l6.268-6.115l12.638-0.283l7.068,6.783l18.906,1.601l-1.933,25.044l21.743,36.42l-10.549,21.331
				l0.927,9.878l8.848,8.41l0.541,23.858l11.685,15.013l0.438,19.783l9.852-0.18c-53.134,68.353-135.467,113.26-228.632,115.296
				c-164.331,3.663-300.907-127.057-304.518-291.388c-0.93-41.346,6.653-80.991,21.151-117.103l-0.206-9.337l10.42-13.156
				c3.56-7.042,7.324-13.98,11.4-20.736l0.621,5.415l-12.02,15.322c-3.714,7.327-7.118,14.78-10.137,22.493l0.362,16.946
				l12.459,5.65l0.515,23.6l12.329,19.965l9.749,1.289l1.083-6.939l-11.812-17.385l-2.607-17.023l6.656-0.129l3.199,17.538
				l17.023,23.655l-4.126,7.866l10.858,15.76l26.154,5.829l-0.077-4.178l10.396,1.289l-0.827,7.377l8.254,1.315l12.638,3.172
				l18.262,19.939l22.855,1.186l2.657,18.547l-15.375,11.246l-0.335,16.558l-2.063,10.24l23.188,27.728l1.986,9.622
				c0,0,8.204,2.013,9.157,1.986c1.006,0,18.623,12.715,18.623,12.715l1.109,51.071l6.241,1.548l-3.714,23.652l10.729,13.645
				l-1.339,23.293l14.21,23.935l18.005,14.96l17.72-0.05l1.598-5.676l-13.206-10.755l0.594-5.444l2.192-6.783l0.309-6.759
				l-8.822-0.077l-4.538-5.441l7.118-7.274l0.877-5.314l-8.204-2.142l0.362-5.003l11.632-2.013l17.541-8.848l5.7-11.038
				l18.029-24.22l-4.641-18.468l5.441-10.034l17.102,0.129l11.349-9.313l2.94-35.929l12.356-16.534l2.036-10.42l-11.735-3.508
				l-7.998-12.432l-26.204,0.333l-20.972-7.454l-1.315-14.831l-7.248-11.967l-18.777,0.129l-11.273-16.819l-9.749-4.564
				l-0.415,5.235l-17.514,1.445l-6.627-8.795l-18.417-3.302l-14.754,17.72l-23.832-3.431l-2.375-26.748l-17.385-2.631l6.68-13.256
				l-2.192-7.533l-22.414,15.76l-14.366-1.445l-5.341-11.091l2.813-11.608l7.633-14.804l17.979-9.596l35.131-0.747l0.127,10.679
				l12.768,5.647l-1.366-18.285l8.846-9.416l18.108-12.459l1.109-8.51l17.9-19.5l19.191-11.194l-1.704-1.368l12.897-12.691
				l4.849,1.136l2.295,2.734l4.876-5.647l1.239-0.621l-5.52-0.671l-5.623-1.677l-0.103-5.364l2.94-2.475l6.45-0.129l3.043,1.212
				l2.707,5.211l3.122-0.647l-0.026-0.438l0.93,0.285l9.078-1.548l1.212-4.54l5.261,1.186l0.103,4.929l-4.77,3.405l0.85,5.261
				l16.611,4.746l0.077,0.18l3.766-0.412l0.129-7.197l-13.259-5.623l-0.798-3.431l10.808-3.97l0.206-10.449l-11.555-6.627
				l-1.083-17.567l-15.425,7.998l-5.676,0.153l1.136-13.439l-21.304-4.538l-8.642,6.833l0.438,20.274l-15.657,5.314l-6.035,13.386
				l-6.886,1.265l-0.388-16.896l-14.831-1.778l-7.533-4.643l-3.275-10.885l26.207-16.096l12.974-4.281l1.471,8.719l7.248-0.491
				l0.412-4.461l7.559-1.189l0.077-1.598l-3.302-1.289l-0.8-4.617l9.313-0.956l5.467-6.009l0.309-0.388h0.077l1.651-1.83
				l19.527-2.89l8.822,7.171l-22.416,12.562l28.94,6.215l3.613-9.722l12.559-0.285l4.308-8.51l-9.001-2.116l-0.206-10.602
				l-28.269-11.788l-19.242,2.657l-10.758,5.985l1.033,13.801l-11.479-1.421l-1.907-7.66l10.729-10.164l-19.836-0.541l-5.621,1.883
				l-2.348,6.68l7.48,1.109l-1.342,7.456l-12.638,1.057l-1.857,4.952l-18.314,0.903c0,0-0.671-10.343-1.445-10.317
				c-0.721,0,14.316-0.594,14.316-0.594l10.731-10.937l-6.062-2.81l-7.712,7.892l-13.206-0.515l-8.125-10.679l-16.817,0.362
				l-17.335,13.489l16.122-0.362l1.598,4.72l-4.102,3.949l17.823,0.127l2.89,6.424l-20.092-0.386l-1.083-4.902l-12.665-2.475
				l-6.785-3.56l-15.01,0.465c48.388-36.885,108.357-59.404,173.744-60.873c75.395-1.651,144.804,24.994,198.376,70.054
				l-3.378,6.397l-13.645,5.7l-5.65,6.424l1.471,7.324l7.118,0.827l4.54,10.576l12.097-5.211l2.322,14.213l-3.637,0.103
				l-10.084-1.263l-11.117,2.113l-10.422,15.504l-15.398,2.758l-1.933,13.233l6.55,1.418l-1.701,8.513l-15.372-2.734l-13.956,3.405
				l-2.76,7.789l2.786,16.405l8.28,3.663l13.824-0.388l9.337-1.03l2.657-7.506l14.213-19.242l9.646,1.754l9.236-8.772l1.907,6.63
				l23.629,15.193l-2.786,3.843l-10.525-0.283l4.205,5.57l6.474,1.289l7.48-3.275l-0.309-9.157l3.302-1.754l-2.76-2.81l-15.708-8.28
				l-4.358-11.426l12.897-0.283l4.202,3.996l11.349,9.337l0.724,11.555l11.735,11.994l3.946-16.843l7.868-4.564l1.778,13.748
				l8.048,8.383l15.504-0.594c3.172,7.609,6.009,15.425,8.536,23.396L1107.616,607.793L1107.616,607.793z M673.796,522.57
				l7.689-3.896l7.065,1.574l-2.192,9.493l-7.557,2.578L673.796,522.57L673.796,522.57z M715.712,543.978l0.127,6.115l-17.847,0.386
				l-6.706-1.651l1.598-4.358l8.46-3.69l11.685-0.256l0.077,3.508L715.712,543.978L715.712,543.978z M724.043,552.335l0.129,5.935
				l-4.384,2.94l-5.573,1.186l-0.206-9.802L724.043,552.335L724.043,552.335z M718.961,550.016l-0.156-7.042l6.268,5.415
				L718.961,550.016L718.961,550.016z M722.083,564.252l0.127,5.803l-4.152,4.308l-9.516,0.232l1.366-6.524l4.49-0.465l0.85-2.245
				L722.083,564.252L722.083,564.252z M698.222,552.902l9.828-0.206l-12.174,17.926l-5.261-2.657l0.901-7.48L698.222,552.902
				L698.222,552.902z M738.718,561.854l0.156,5.803l-9.466,0.206l-2.684-3.714l-0.127-5.338l0.774-0.026L738.718,561.854
				L738.718,561.854z M729.819,554.115l2.657-2.887l4.643,2.707l-3.584,3.096L729.819,554.115L729.819,554.115z M1112.777,622.674
				l0.927-1.057c0.465,1.598,0.877,3.302,1.315,5.055L1112.777,622.674z"/>
		</g>
	</g>
	<g>
		<path fill-rule="evenodd" clip-rule="evenodd" fill="#E5E2E2" d="M224.345,261.385c24.712-0.568,45.165,19.036,45.733,43.747
			c0.541,24.709-19.062,45.163-43.747,45.704c-24.735,0.568-45.163-19.035-45.731-43.718
			C180.059,282.38,199.636,261.926,224.345,261.385z"/>
		<path fill-rule="evenodd" clip-rule="evenodd" fill="#E5E2E2" d="M128.549,259.142l38.097-0.827l0.85,38.148l-57.183,1.239
			l-0.438-19.035C109.643,268.144,118.024,259.399,128.549,259.142z"/>
		<path fill-rule="evenodd" clip-rule="evenodd" fill="#E5E2E2" d="M326.384,254.782l-38.121,0.853l0.85,38.121l57.183-1.263
			l-0.438-19.062C345.626,262.933,336.857,254.549,326.384,254.782z"/>
		<path fill-rule="evenodd" clip-rule="evenodd" fill="#E5E2E2" d="M131.359,363.836l38.124-0.85l-0.85-38.097l-57.212,1.239
			l0.415,19.062C112.091,355.685,120.863,364.069,131.359,363.836z"/>
		<path fill-rule="evenodd" clip-rule="evenodd" fill="#E5E2E2" d="M328.191,359.478l-38.124,0.824l-0.85-38.095l57.21-1.292
			l0.412,19.088C347.07,350.501,338.663,359.246,328.191,359.478z"/>
		<polygon fill-rule="evenodd" clip-rule="evenodd" fill="#E5E2E2" points="111.191,306.265 167.756,305.029 168.012,316.299 
			111.447,317.564 		"/>
		<polygon fill-rule="evenodd" clip-rule="evenodd" fill="#E5E2E2" points="345.808,301.083 289.243,302.319 289.475,313.618 
			346.04,312.353 		"/>
	</g>
	<path fill-rule="evenodd" clip-rule="evenodd" fill="#FFFFFF" d="M125.865,519.76l0.827,37.45l2.554-0.05l-0.232-10.137
		c-0.026-1.239,0.283-2.374,1.109-3.199c0.695-0.774,1.754-1.212,3.172-1.265c1.445-0.024,2.501,0.388,3.249,1.109
		c0.85,0.827,1.212,1.936,1.239,3.172l0.335,14.498c0.026,1.418-0.438,2.448-1.136,3.199c-0.824,0.877-1.986,1.263-3.172,1.289
		l-22.646,0.515c-1.186,0.026-2.322-0.309-3.199-1.159c-0.747-0.724-1.239-1.754-1.265-3.148c-0.024-1.392,0.415-2.448,1.109-3.172
		l0,0c0.853-0.903,1.986-1.263,3.172-1.315l6.939-0.129l-0.668-30.229l-6.939,0.18c-1.189,0-2.348-0.335-3.225-1.159
		c-0.724-0.724-1.212-1.727-1.239-3.122c-0.05-1.392,0.388-2.448,1.136-3.199l0,0c0.824-0.877,1.96-1.263,3.119-1.315l14.213-0.283
		l1.521-0.053L125.865,519.76L125.865,519.76z M174.332,525.948l-12.562,0.259l0.232,10.729l9.078-0.206
		c1.059-0.024,1.986,0.079,2.916,0.309c0.953,0.285,1.857,0.774,2.734,1.601c1.033,0.903,1.651,1.83,1.986,2.863
		c0.335,0.953,0.386,1.933,0.412,3.069l0.259,12.303c0.026,0.98,0,1.857-0.206,2.76c-0.232,0.953-0.644,1.807-1.395,2.734l0,0
		c-0.877,1.083-1.83,1.754-2.887,2.116c-1.006,0.362-2.039,0.465-3.199,0.515l-12.768,0.285c-1.754,0.026-2.734-0.388-4.281-1.033
		l0,0l-0.129-0.077h-0.026l-2.166-0.903l0,0l-0.491-0.18l0,0c-1.883-0.747-3.766-1.521-3.817-4.308
		c-0.026-1.162,0.438-2.269,1.212-3.069c0.721-0.877,1.804-1.395,2.966-1.418c0.465-0.026,0.903,0.05,1.315,0.153v-0.024
		c0.412,0.103,0.774,0.23,1.16,0.412l0,0l1.704,0.695h0.026c0.18,0.079,0.465,0.209,0.747,0.362
		c0.618,0.259,1.368,0.621,1.727,0.621l11.738-0.285l-0.232-10.705l-15.451,0.335l-1.521,0.026v-1.495l-0.568-25.227l-0.05-1.521
		l1.521-0.026l19.833-0.438c1.189-0.026,2.322,0.335,3.199,1.16l0,0c0.75,0.724,1.239,1.73,1.265,3.122s-0.388,2.425-1.109,3.172
		C176.68,525.51,175.518,525.922,174.332,525.948L174.332,525.948z M200.23,520.996l0.438,19.992l8.124-0.209l-0.309-15.087
		c-0.053-1.136,0.283-2.322,1.107-3.225l0,0c0.724-0.724,1.756-1.239,3.175-1.265c1.418-0.024,2.448,0.438,3.199,1.136
		c0.877,0.85,1.263,2.013,1.263,3.172l0.335,15.322c0.644,0.156,1.239,0.491,1.704,0.953c0.747,0.697,1.263,1.754,1.263,3.148
		c0.053,1.366-0.386,2.425-1.109,3.172c-0.489,0.489-1.03,0.824-1.651,1.033L218,559.585c0.026,1.315-0.283,2.345-1.006,3.172
		c-0.747,0.824-1.804,1.263-3.275,1.315c-1.495,0.026-2.581-0.388-3.354-1.162c-0.747-0.798-1.107-1.83-1.133-3.146l-0.232-10.214
		l-15.372,0.335l-1.524,0.05l-0.024-1.495l-0.621-27.263c-0.026-1.136,0.285-2.348,1.136-3.225l0,0
		c0.697-0.724,1.727-1.239,3.172-1.265c1.418-0.05,2.451,0.415,3.199,1.136C199.842,518.674,200.203,519.837,200.23,520.996
		L200.23,520.996z M257.104,524.118l-12.588,0.283l0.259,10.705l9.054-0.206c1.057-0.026,2.01,0.05,2.94,0.309
		c0.953,0.285,1.83,0.774,2.734,1.601c1.033,0.901,1.624,1.83,1.986,2.837c0.309,0.98,0.386,1.933,0.412,3.096l0.259,12.277
		c0.026,1.006,0,1.91-0.232,2.786c-0.232,0.927-0.644,1.804-1.368,2.734l0,0c-0.901,1.083-1.83,1.727-2.887,2.142
		c-1.033,0.333-2.039,0.462-3.199,0.489l-12.794,0.283c-1.754,0.026-2.707-0.386-4.281-1.03l0,0l-0.129-0.053l0,0l-2.192-0.927l0,0
		l-0.465-0.182l0,0c-1.883-0.774-3.766-1.521-3.817-4.305c-0.026-1.162,0.412-2.298,1.186-3.096
		c0.747-0.853,1.807-1.368,2.966-1.395c0.491-0.024,0.903,0.026,1.315,0.156l0.026-0.026c0.386,0.129,0.747,0.232,1.16,0.412h-0.024
		l1.727,0.697l0,0c0.206,0.077,0.465,0.206,0.774,0.335c0.592,0.309,1.342,0.644,1.701,0.644l11.761-0.283l-0.256-10.705
		l-15.425,0.362l-1.521,0.024l-0.026-1.521l-0.568-25.224l-0.026-1.524l1.524-0.024l19.809-0.438
		c1.186-0.026,2.345,0.335,3.199,1.133l0,0c0.774,0.747,1.263,1.754,1.289,3.172c0.026,1.368-0.412,2.425-1.136,3.148
		C259.426,523.68,258.29,524.092,257.104,524.118L257.104,524.118z M324.371,518.236l0.441,19.992l8.125-0.182l-0.335-15.089
		c-0.026-1.159,0.283-2.345,1.133-3.249l0.026,0.026c0.697-0.747,1.704-1.239,3.122-1.292c1.445,0,2.475,0.438,3.225,1.136
		c0.877,0.851,1.236,2.013,1.263,3.172l0.335,15.322c0.644,0.18,1.239,0.491,1.704,0.953c0.747,0.724,1.236,1.754,1.263,3.148
		c0.053,1.392-0.386,2.451-1.109,3.199c-0.465,0.489-1.033,0.8-1.677,1.03l0.232,10.422c0.026,1.289-0.256,2.398-0.98,3.199
		c-0.747,0.798-1.804,1.289-3.302,1.289c-1.469,0.026-2.578-0.362-3.328-1.162c-0.774-0.771-1.133-1.857-1.16-3.119l-0.206-10.214
		l-15.398,0.335l-1.498,0.024l-0.024-1.495l-0.621-27.263c0-1.136,0.285-2.322,1.136-3.199l0,0c0.697-0.747,1.727-1.239,3.146-1.292
		c1.445,0,2.477,0.438,3.199,1.136C323.986,515.914,324.348,517.103,324.371,518.236L324.371,518.236z M365.747,517.335
		l0.462,19.963l8.127-0.18l-0.335-15.063c-0.026-1.162,0.283-2.348,1.133-3.251l0,0c0.697-0.747,1.704-1.239,3.148-1.263
		c1.418-0.026,2.475,0.412,3.199,1.109c0.901,0.877,1.236,2.036,1.263,3.199l0.362,15.319c0.618,0.156,1.212,0.491,1.701,0.98
		c0.724,0.671,1.212,1.73,1.239,3.096c0.053,1.395-0.386,2.478-1.109,3.199c-0.465,0.491-1.057,0.827-1.651,1.033l0.206,10.446
		c0.053,1.289-0.256,2.348-0.98,3.172c-0.747,0.827-1.804,1.265-3.302,1.315c-1.445,0.026-2.578-0.386-3.328-1.159
		c-0.747-0.8-1.107-1.857-1.133-3.122l-0.232-10.24l-15.372,0.362l-1.524,0.026l-0.024-1.498l-0.621-27.263
		c0-1.162,0.309-2.322,1.136-3.199l0,0c0.721-0.774,1.727-1.265,3.146-1.289c1.445-0.026,2.478,0.412,3.225,1.133
		C365.358,514.987,365.72,516.173,365.747,517.335L365.747,517.335z M422.621,520.455l-12.562,0.285l0.232,10.702l9.054-0.232
		c1.057,0,2.01,0.079,2.94,0.362c0.953,0.259,1.83,0.747,2.734,1.574c1.033,0.903,1.598,1.804,1.96,2.837
		c0.335,1.006,0.412,1.936,0.438,3.096l0.285,12.277c0,1.006-0.026,1.91-0.232,2.787c-0.232,0.953-0.671,1.807-1.395,2.734l0,0
		c-0.901,1.109-1.83,1.754-2.887,2.142c-1.006,0.362-2.039,0.465-3.225,0.515l-12.768,0.232c-1.754,0.053-2.707-0.362-4.281-1.006
		l0,0l-0.129-0.077l0,0l-2.192-0.877l0,0l-0.465-0.206l0,0c-1.883-0.774-3.766-1.521-3.817-4.334
		c-0.026-1.16,0.438-2.245,1.16-3.069c0.774-0.827,1.807-1.368,2.993-1.392c0.491-0.026,0.93,0.05,1.342,0.153l0,0
		c0.362,0.077,0.747,0.232,1.136,0.388l0,0l1.727,0.695l0,0c0.18,0.103,0.465,0.206,0.747,0.335
		c0.644,0.309,1.392,0.644,1.727,0.644l11.764-0.283l-0.232-10.679l-15.451,0.309l-1.521,0.053l-0.026-1.521l-0.568-25.227
		l-0.026-1.521l1.498-0.026l19.836-0.438c1.186-0.026,2.345,0.335,3.222,1.159l0,0c0.75,0.697,1.239,1.73,1.265,3.122
		c0.026,1.418-0.412,2.425-1.109,3.199C424.942,520.043,423.78,520.428,422.621,520.455L422.621,520.455z M456.899,512.433
		l0.827,37.453l2.554-0.053l-0.232-10.111c-0.026-1.263,0.309-2.398,1.109-3.249c0.721-0.724,1.754-1.212,3.199-1.212
		c1.418-0.026,2.475,0.359,3.222,1.083c0.853,0.824,1.212,1.907,1.239,3.172l0.309,14.495c0.053,1.395-0.386,2.451-1.136,3.199
		c-0.798,0.877-1.96,1.289-3.146,1.289l-22.646,0.518c-1.162,0.026-2.322-0.309-3.199-1.162c-0.747-0.721-1.239-1.754-1.265-3.146
		c-0.024-1.392,0.388-2.425,1.109-3.172l0,0c0.853-0.877,1.986-1.265,3.175-1.292l6.936-0.153l-0.668-30.229l-6.939,0.18
		c-1.189,0-2.348-0.309-3.199-1.162c-0.774-0.695-1.265-1.727-1.292-3.119c-0.024-1.395,0.415-2.425,1.136-3.199l0,0
		c0.85-0.877,1.986-1.265,3.172-1.289l14.186-0.335l1.498-0.026L456.899,512.433L456.899,512.433z M539.644,510.603l0.827,37.45
		l2.554-0.05l-0.206-10.111c-0.053-1.239,0.283-2.374,1.083-3.225c0.721-0.774,1.754-1.212,3.199-1.239
		c1.445-0.024,2.475,0.362,3.222,1.083c0.877,0.827,1.239,1.91,1.239,3.175l0.362,14.522c0,1.366-0.465,2.398-1.162,3.199
		c-0.824,0.85-1.96,1.236-3.146,1.263l-22.646,0.515c-1.162,0.026-2.348-0.335-3.225-1.16c-0.747-0.721-1.239-1.727-1.263-3.146
		c-0.026-1.395,0.438-2.425,1.133-3.175l0,0c0.85-0.877,1.986-1.263,3.172-1.289l6.915-0.18l-0.647-30.179l-6.962,0.156
		c-1.162,0.024-2.322-0.312-3.199-1.136c-0.747-0.724-1.239-1.754-1.265-3.148c-0.05-1.418,0.415-2.448,1.136-3.196l0,0
		c0.824-0.853,1.96-1.265,3.146-1.292l14.186-0.335l1.524-0.024L539.644,510.603L539.644,510.603z M584.989,536.371l-14.701,0.309
		l0.232,10.729l18.288-0.412c1.186-0.026,2.322,0.335,3.199,1.136v0.024c0.747,0.697,1.236,1.704,1.263,3.122
		c0.026,1.392-0.386,2.425-1.109,3.172c-0.85,0.877-1.986,1.292-3.172,1.315l-25.509,0.568l-1.498,0.026l-0.05-1.521l-0.412-18.727
		c-0.053-2.554,0.565-4.567,1.933-5.959l0,0c1.368-1.418,3.328-2.166,5.906-2.219l14.627-0.335l-0.232-10.729l-18.262,0.412
		c-1.189,0.026-2.348-0.309-3.225-1.159c-0.724-0.697-1.212-1.704-1.265-3.096c-0.024-1.418,0.415-2.477,1.136-3.199l0,0
		c0.827-0.877,1.986-1.292,3.146-1.315l19.088-0.415c1.083-0.024,2.036,0.053,2.966,0.335c0.953,0.259,1.83,0.774,2.76,1.548v0.026
		c1.033,0.903,1.651,1.883,1.986,2.966c0.309,1.033,0.386,2.013,0.412,3.199l0.259,11.788c0.026,1.109,0,2.166-0.285,3.172
		c-0.283,1.109-0.824,2.116-1.857,3.069v0.026c-0.877,0.827-1.701,1.342-2.681,1.677
		C587.028,536.215,586.075,536.344,584.989,536.371L584.989,536.371z M617.001,516.147l0.23,10.705l2.401-0.05l-0.259-10.705
		L617.001,516.147L617.001,516.147z M609.312,508.77c0.724-0.747,1.754-1.263,3.122-1.289l11.143-0.259
		c1.342-0.024,2.372,0.438,3.146,1.162h0.026c0.851,0.824,1.263,1.96,1.315,3.146l0.309,15.219c0.465,0.077,0.93,0.206,1.342,0.362
		l0,0c0.93,0.335,1.727,0.824,2.425,1.445c0.697,0.644,1.239,1.442,1.598,2.345c0.335,0.877,0.518,1.857,0.568,2.89l0.285,13.698
		c0.05,2.166-0.621,3.996-1.883,5.312c-1.239,1.315-3.019,2.065-5.211,2.116l-16.92,0.362c-2.166,0.05-3.972-0.621-5.288-1.883
		c-1.315-1.239-2.063-3.019-2.116-5.211l-0.283-13.671c-0.053-1.083,0.103-2.063,0.412-2.94c0.309-0.927,0.824-1.727,1.495-2.398
		c0.647-0.644,1.445-1.186,2.348-1.574c0.438-0.153,0.85-0.309,1.315-0.386l-0.335-15.245
		C608.1,510.809,608.488,509.623,609.312,508.77L609.312,508.77L609.312,508.77z M611.687,535.777l0.232,10.705l13.877-0.309
		l-0.232-10.705L611.687,535.777L611.687,535.777z M658.374,515.246l0.23,10.702l2.401-0.05l-0.232-10.705L658.374,515.246
		L658.374,515.246z M650.711,507.869c0.697-0.774,1.727-1.292,3.096-1.315l11.143-0.232c1.342-0.053,2.398,0.438,3.172,1.16l0,0
		c0.85,0.8,1.263,1.96,1.315,3.122l0.309,15.243c0.491,0.077,0.93,0.182,1.342,0.335l0,0c0.93,0.335,1.727,0.85,2.425,1.471
		c0.721,0.618,1.239,1.392,1.598,2.322c0.362,0.877,0.544,1.857,0.568,2.913l0.285,13.671c0.05,2.192-0.621,4.023-1.883,5.338
		c-1.239,1.292-3.019,2.039-5.211,2.089l-16.893,0.388c-2.192,0.053-3.999-0.644-5.314-1.883c-1.289-1.263-2.039-3.043-2.089-5.235
		l-0.309-13.671c-0.026-1.059,0.103-2.039,0.438-2.94c0.309-0.903,0.8-1.73,1.469-2.401c0.647-0.644,1.445-1.186,2.375-1.548
		c0.412-0.18,0.85-0.309,1.289-0.386l-0.309-15.269c-0.026-1.162,0.335-2.348,1.16-3.172H650.711L650.711,507.869z M653.059,534.873
		l0.232,10.705l13.877-0.309l-0.232-10.731L653.059,534.873L653.059,534.873z M741.142,513.387l0.232,10.731l2.375-0.077
		l-0.232-10.705L741.142,513.387L741.142,513.387z M733.456,506.036c0.724-0.774,1.754-1.263,3.096-1.289l11.143-0.259
		c1.342-0.026,2.425,0.438,3.146,1.162h0.026c0.85,0.798,1.289,1.96,1.315,3.119l0.335,15.245c0.491,0.077,0.903,0.18,1.315,0.335
		l0,0c0.953,0.335,1.754,0.85,2.451,1.469c0.697,0.621,1.239,1.421,1.598,2.322c0.335,0.877,0.518,1.857,0.542,2.916l0.312,13.695
		c0.05,2.168-0.621,3.999-1.883,5.314c-1.239,1.289-3.019,2.063-5.211,2.116l-16.893,0.362c-2.192,0.05-4.025-0.647-5.314-1.859
		c-1.315-1.289-2.063-3.093-2.116-5.261l-0.309-13.668c0-1.086,0.129-2.039,0.438-2.942c0.309-0.927,0.8-1.727,1.471-2.398
		c0.668-0.618,1.442-1.159,2.372-1.548c0.412-0.18,0.877-0.309,1.315-0.386l-0.335-15.245c-0.026-1.186,0.362-2.348,1.162-3.199
		H733.456L733.456,506.036z M735.805,533.016l0.259,10.705l13.851-0.285l-0.206-10.702L735.805,533.016L735.805,533.016z
		 M779.525,508.178l0.462,19.989l8.127-0.206l-0.335-15.063c0-1.186,0.283-2.348,1.133-3.251l0,0
		c0.697-0.721,1.73-1.212,3.148-1.236c1.445-0.053,2.475,0.386,3.225,1.109c0.901,0.85,1.236,1.986,1.263,3.196l0.335,15.298
		c0.618,0.153,1.212,0.489,1.704,0.954c0.747,0.697,1.236,1.754,1.263,3.146c0.026,1.368-0.412,2.451-1.136,3.172
		c-0.462,0.518-1.03,0.827-1.651,1.033l0.232,10.446c0.026,1.289-0.283,2.374-1.006,3.172c-0.721,0.827-1.804,1.265-3.275,1.315
		c-1.471,0.026-2.578-0.359-3.328-1.16c-0.774-0.8-1.109-1.83-1.159-3.122l-0.232-10.24l-15.372,0.362l-1.521,0.026l-0.026-1.498
		l-0.621-27.263c0-1.136,0.312-2.322,1.162-3.199l0,0c0.697-0.747,1.727-1.239,3.146-1.263c1.418-0.026,2.478,0.412,3.199,1.109
		C779.163,505.856,779.499,507.016,779.525,508.178L779.525,508.178z M836.399,511.274l-12.562,0.283l0.232,10.731l9.078-0.209
		c1.059-0.024,1.986,0.053,2.942,0.312c0.927,0.283,1.83,0.774,2.707,1.598c1.059,0.903,1.624,1.807,1.96,2.837
		c0.362,0.98,0.415,1.936,0.438,3.096l0.285,12.303c0,1.006,0,1.883-0.232,2.76c-0.232,0.956-0.644,1.833-1.368,2.734l0,0
		c-0.903,1.109-1.857,1.756-2.913,2.142c-1.006,0.362-2.039,0.438-3.199,0.491l-12.768,0.283c-1.754,0.05-2.734-0.388-4.281-1.006
		l0,0l-0.156-0.077l0,0l-2.192-0.903l0,0l-0.465-0.206l0,0c-1.883-0.747-3.74-1.521-3.817-4.308
		c-0.026-1.159,0.438-2.269,1.186-3.096c0.747-0.824,1.807-1.366,2.966-1.392c0.491,0,0.93,0.05,1.342,0.153h0.026
		c0.362,0.079,0.721,0.232,1.109,0.415l0,0l1.727,0.671l0,0c0.18,0.077,0.491,0.206,0.774,0.359
		c0.618,0.285,1.368,0.621,1.704,0.621l11.761-0.259l-0.232-10.705l-15.451,0.335l-1.495,0.026l-0.053-1.495l-0.541-25.253
		l-0.05-1.521l1.521-0.026l19.836-0.438c1.16-0.026,2.345,0.335,3.196,1.162l0,0c0.75,0.721,1.239,1.754,1.292,3.146
		c0,1.392-0.438,2.425-1.136,3.172C838.721,510.885,837.585,511.274,836.399,511.274L836.399,511.274z M914.94,517.618l-0.153-8.048
		l-18.262,0.412c-1.189,0-2.348-0.335-3.225-1.16c-0.747-0.724-1.212-1.727-1.265-3.122c-0.024-1.392,0.415-2.448,1.136-3.199l0,0
		c0.827-0.877,1.96-1.289,3.146-1.289l19.786-0.438c2.036-0.077,3.869,0.697,5.209,1.986c1.315,1.239,2.168,3.043,2.192,5.108
		l0.259,11.038c0.026,1.292-0.103,2.451-0.489,3.56c-0.232,0.721-0.594,1.392-1.109,2.063c0.541,0.621,0.927,1.265,1.212,1.96
		c0.438,1.083,0.592,2.245,0.618,3.56l0.259,11.014c0.05,2.089-0.697,3.92-1.986,5.235c-1.265,1.342-3.045,2.168-5.108,2.192
		l-19.783,0.438c-1.186,0.026-2.348-0.309-3.199-1.159c-0.747-0.697-1.239-1.727-1.265-3.122c-0.05-1.418,0.388-2.448,1.136-3.172
		h-0.026c0.853-0.903,1.986-1.263,3.172-1.315l18.264-0.386l-0.209-8.048c0-1.239-0.206-1.986-0.515-2.348l0,0
		c-0.206-0.232-0.515-0.309-0.877-0.309l-11.27,0.283c-1.189,0-2.348-0.335-3.225-1.16c-0.747-0.697-1.239-1.754-1.265-3.148
		c-0.05-1.392,0.415-2.425,1.109-3.196c0.85-0.853,2.013-1.265,3.199-1.292l11.246-0.256c0.362,0,0.671-0.103,0.85-0.312v-0.024
		C914.81,519.578,914.992,518.83,914.94,517.618L914.94,517.618z M957.395,528.141l-14.701,0.312l0.232,10.702l18.288-0.386
		c1.186-0.026,2.322,0.309,3.199,1.133l0,0c0.747,0.724,1.236,1.756,1.289,3.148c0,1.366-0.438,2.425-1.136,3.172
		c-0.824,0.903-1.96,1.265-3.146,1.315l-25.536,0.541l-1.521,0.026l-0.026-1.495l-0.412-18.727c-0.053-2.554,0.618-4.593,1.96-5.985
		l0,0c1.342-1.418,3.302-2.166,5.879-2.219l14.651-0.309l-0.256-10.729l-18.262,0.412c-1.162,0.026-2.348-0.335-3.225-1.136
		c-0.747-0.721-1.212-1.754-1.265-3.146c-0.024-1.395,0.415-2.425,1.136-3.199l0,0c0.827-0.853,1.986-1.292,3.148-1.292
		l19.086-0.412c1.083-0.05,2.039,0.053,2.966,0.309c0.953,0.285,1.857,0.774,2.76,1.574l0,0c1.033,0.93,1.651,1.91,1.986,2.993
		c0.335,1.033,0.386,2.013,0.412,3.172l0.259,11.788c0.026,1.136,0,2.192-0.285,3.199c-0.256,1.109-0.824,2.089-1.83,3.043
		l-0.026,0.053c-0.85,0.8-1.727,1.342-2.681,1.651C959.46,527.988,958.481,528.117,957.395,528.141z"/>
	<path fill-rule="evenodd" clip-rule="evenodd" fill="#146092" d="M515.244,301.056l12.071,3.431
		c-1.701,6.783-4.641,11.891-8.872,15.243c-4.178,3.378-9.596,5.132-16.172,5.288c-8.151,0.18-14.934-2.475-20.301-7.918
		c-5.391-5.467-8.175-13.027-8.407-22.672c-0.206-10.24,2.269-18.235,7.427-24.014c5.135-5.776,11.994-8.743,20.61-8.925
		c7.506-0.18,13.671,1.91,18.468,6.268c2.839,2.528,5.032,6.268,6.527,11.17l-12.2,3.199c-0.8-3.148-2.374-5.65-4.694-7.454
		c-2.348-1.756-5.185-2.633-8.486-2.554c-4.54,0.103-8.23,1.804-10.964,5.158c-2.784,3.302-4.075,8.616-3.92,15.94
		c0.18,7.739,1.701,13.233,4.564,16.455c2.863,3.251,6.527,4.826,11.014,4.723c3.302-0.079,6.115-1.189,8.436-3.328
		C512.666,308.898,514.317,305.597,515.244,301.056L515.244,301.056z M549.549,322.929l-11.762,0.283l-0.98-44.492l10.885-0.259
		l0.156,6.32c1.804-3.045,3.431-5.032,4.9-5.959c1.498-0.98,3.199-1.498,5.108-1.521c2.684-0.079,5.288,0.618,7.789,2.036
		l-3.405,10.343c-2.036-1.239-3.896-1.857-5.597-1.83c-1.651,0.05-3.019,0.541-4.152,1.469c-1.136,0.956-1.962,2.607-2.581,4.979
		c-0.618,2.374-0.85,7.377-0.671,14.91L549.549,322.929L549.549,322.929z M597.086,307.813l11.788,1.704
		c-1.392,4.334-3.714,7.66-6.912,10.008c-3.199,2.322-7.248,3.534-12.123,3.663c-7.736,0.153-13.515-2.271-17.332-7.224
		c-3.019-3.996-4.617-9.078-4.746-15.269c-0.156-7.377,1.651-13.206,5.417-17.461c3.714-4.281,8.563-6.474,14.442-6.603
		c6.603-0.129,11.867,1.933,15.787,6.215c3.92,4.308,5.906,10.964,5.932,19.992l-29.429,0.644c0.18,3.508,1.16,6.165,3.016,8.098
		c1.857,1.883,4.152,2.813,6.809,2.76c1.857-0.05,3.405-0.594,4.617-1.598C595.591,311.709,596.494,310.084,597.086,307.813
		L597.086,307.813z M597.501,295.898c-0.156-3.405-1.083-6.011-2.813-7.739c-1.701-1.754-3.74-2.604-6.138-2.528
		c-2.554,0.05-4.643,1.033-6.294,2.913c-1.624,1.962-2.372,4.514-2.269,7.712L597.501,295.898L597.501,295.898z M660.178,320.504
		l-10.885,0.232l-0.156-6.527c-1.754,2.581-3.867,4.54-6.318,5.882c-2.425,1.315-4.926,2.013-7.43,2.063
		c-5.132,0.129-9.593-1.857-13.309-5.882c-3.74-4.073-5.7-9.749-5.853-17.152c-0.182-7.53,1.469-13.333,4.926-17.332
		c3.481-3.999,7.918-6.088,13.359-6.217c4.952-0.103,9.339,1.91,13.053,5.932l-0.491-22.155l11.738-0.259L660.178,320.504
		L660.178,320.504z M628.271,298.09c0.103,4.746,0.851,8.175,2.192,10.264c1.986,3.045,4.643,4.54,8.048,4.49
		c2.707-0.103,4.979-1.265,6.809-3.637c1.857-2.374,2.71-5.829,2.604-10.422c-0.103-5.132-1.083-8.795-2.99-11.014
		c-1.883-2.216-4.258-3.302-7.121-3.249c-2.784,0.053-5.106,1.239-6.939,3.508C629.045,290.301,628.168,293.653,628.271,298.09
		L628.271,298.09z M670.624,269.742l-0.256-10.911l11.761-0.256l0.232,10.911L670.624,269.742L670.624,269.742z M671.733,320.245
		l-0.98-44.518l11.735-0.259l0.983,44.495L671.733,320.245L671.733,320.245z M714.886,274.773l0.206,9.363l-8.048,0.153
		l0.415,18.005c0.077,3.661,0.18,5.803,0.359,6.394c0.156,0.594,0.518,1.086,1.083,1.498c0.544,0.362,1.212,0.515,1.986,0.515
		c1.109-0.026,2.684-0.412,4.746-1.212l1.186,9.104c-2.734,1.239-5.803,1.883-9.258,1.986c-2.116,0.026-4.025-0.283-5.726-0.953
		c-1.704-0.697-2.992-1.574-3.793-2.707c-0.824-1.109-1.418-2.631-1.754-4.567c-0.283-1.366-0.465-4.152-0.568-8.331l-0.438-19.474
		l-5.391,0.129l-0.206-9.363l5.391-0.103l-0.18-8.848l11.606-7.197l0.335,15.76L714.886,274.773L714.886,274.773z M767.764,296.569
		l8.227,1.881c-1.574,6.733-4.514,11.841-8.848,15.451c-4.332,3.584-9.699,5.467-16.096,5.623
		c-6.603,0.129-11.994-1.083-16.196-3.69c-4.205-2.604-7.456-6.447-9.699-11.503c-2.295-5.055-3.484-10.499-3.611-16.352
		c-0.156-6.397,0.953-11.994,3.249-16.793c2.372-4.823,5.779-8.486,10.214-11.091c4.437-2.554,9.363-3.896,14.78-4.023
		c6.138-0.129,11.323,1.315,15.554,4.332c4.281,3.043,7.274,7.351,9.052,12.974l-7.942,2.065c-1.498-4.411-3.663-7.636-6.373-9.622
		c-2.784-1.96-6.188-2.916-10.29-2.813c-4.694,0.106-8.616,1.318-11.711,3.663c-3.119,2.322-5.288,5.391-6.474,9.234
		s-1.754,7.792-1.677,11.841c0.129,5.209,0.983,9.749,2.581,13.618c1.598,3.843,4.023,6.706,7.274,8.563
		c3.249,1.857,6.733,2.76,10.446,2.657c4.564-0.103,8.331-1.495,11.426-4.178C764.745,305.7,766.781,301.777,767.764,296.569
		L767.764,296.569z M779.731,317.873l22.181-61.929l8.925-0.206l26.362,60.847l-9.234,0.206l-7.533-18.468l-25.845,0.565
		l-6.241,18.779L779.731,317.873L779.731,317.873z M796.831,292.261l20.919-0.491l-6.783-16.843
		c-2.036-5.132-3.584-9.387-4.694-12.715c-0.75,3.996-1.78,7.969-3.096,11.865L796.831,292.261L796.831,292.261z M843.826,316.429
		l-1.366-61.414l27.186-0.592c5.494-0.106,9.646,0.359,12.535,1.418c2.863,1.004,5.185,2.913,6.939,5.673
		c1.754,2.734,2.657,5.803,2.76,9.157c0.103,4.384-1.239,8.098-3.999,11.117c-2.76,3.069-7.042,5.055-12.921,5.982
		c2.166,0.983,3.817,1.986,4.976,2.969c2.398,2.113,4.72,4.797,6.888,7.995l10.988,16.508l-10.164,0.206l-8.383-12.588
		c-2.448-3.637-4.461-6.421-6.009-8.331c-1.598-1.91-3.019-3.275-4.231-4.023c-1.236-0.75-2.475-1.265-3.74-1.524
		c-0.927-0.18-2.425-0.256-4.514-0.18l-9.413,0.18l0.618,27.289L843.826,316.429L843.826,316.429z M851.203,281.942l17.438-0.359
		c3.714-0.103,6.577-0.541,8.666-1.342c2.063-0.827,3.611-2.089,4.67-3.793c1.03-1.727,1.521-3.584,1.495-5.57
		c-0.05-2.89-1.186-5.261-3.302-7.094c-2.139-1.83-5.494-2.681-10.008-2.578l-19.421,0.438L851.203,281.942L851.203,281.942z
		 M905.552,315.087l-1.342-61.414l21.151-0.462c4.77-0.106,8.407,0.103,10.935,0.644c3.56,0.721,6.577,2.113,9.104,4.202
		c3.302,2.657,5.779,6.088,7.48,10.293c1.73,4.231,2.633,9.104,2.76,14.574c0.103,4.667-0.359,8.795-1.366,12.406
		c-1.006,3.663-2.348,6.653-3.999,9.054c-1.651,2.398-3.455,4.305-5.467,5.673c-1.986,1.418-4.411,2.501-7.224,3.275
		c-2.863,0.747-6.138,1.162-9.852,1.239L905.552,315.087L905.552,315.087z M913.548,307.686l13.077-0.285
		c4.049-0.103,7.221-0.541,9.493-1.342c2.295-0.798,4.102-1.907,5.441-3.302c1.883-1.986,3.302-4.643,4.308-7.892
		c1.006-3.275,1.471-7.248,1.368-11.891c-0.156-6.447-1.315-11.376-3.484-14.78c-2.192-3.378-4.797-5.647-7.839-6.756
		c-2.192-0.827-5.702-1.136-10.549-1.033l-12.847,0.285L913.548,307.686z"/>
	<polygon fill-rule="evenodd" clip-rule="evenodd" fill="#146092" points="459.609,340.828 969.933,329.532 970.139,339.281 
		459.841,350.553 	"/>
	<polygon fill-rule="evenodd" clip-rule="evenodd" fill="#009FBC" points="128.652,675.293 715.298,662.319 715.866,687.752 
		129.22,700.725 	"/>
	<polygon fill-rule="evenodd" clip-rule="evenodd" fill="#009FBC" points="129.708,722.444 427.494,715.868 428.062,741.298 
		130.276,747.877 	"/>
	<path fill-rule="evenodd" clip-rule="evenodd" fill="#E5E2E2" d="M894.977,662.834l53.882-1.186
		c7.403-0.153,13.594,5.779,13.748,13.18l1.109,50.118c0.156,7.403-5.776,13.618-13.18,13.748l-53.858,1.212
		c-7.427,0.156-13.618-5.776-13.774-13.18l-1.109-50.118C881.641,669.207,887.547,663.016,894.977,662.834z"/>
	<polygon fill-rule="evenodd" clip-rule="evenodd" fill="#009FBC" points="102.06,487.98 964.051,468.919 964.128,472.659 
		102.136,491.72 	"/>
	<polygon fill-rule="evenodd" clip-rule="evenodd" fill="#009FBC" points="105.8,589.685 967.791,570.623 967.868,574.389 
		105.876,593.477 	"/>
</g>
</svg>
